<svg width="16" height="16" viewBox="0 0 16 16" fill="none" xmlns="http://www.w3.org/2000/svg">
<path d="M12.3479 5.36293L6.7279 10.9829C6.63717 11.0796 6.51049 11.1344 6.3779 11.1344C6.24531 11.1344 6.11863 11.0796 6.0279 10.9829L3.6479 8.63293C3.55324 8.53905 3.5 8.41125 3.5 8.27793C3.5 8.14461 3.55324 8.01681 3.6479 7.92293L4.1779 7.39293C4.26863 7.29625 4.39531 7.24141 4.5279 7.24141C4.66049 7.24141 4.78717 7.29625 4.8779 7.39293L6.3779 8.88293L11.1179 4.14293C11.3123 3.95236 11.6235 3.95236 11.8179 4.14293L12.3479 4.67293C12.532 4.86608 12.532 5.16978 12.3479 5.36293Z" fill="white"/>
</svg>
